<svg width="16" height="23" viewBox="0 0 16 23" fill="none" xmlns="http://www.w3.org/2000/svg">
<path d="M1.25 10.3047L10.8125 0.742188C11.1406 0.414062 11.5391 0.25 12.0078 0.25C12.4766 0.25 12.875 0.414062 13.2031 0.742188L14.75 2.35938C15.0781 2.6875 15.2422 3.08594 15.2422 3.55469C15.2422 4.02344 15.0781 4.42187 14.75 4.75L8 11.5L14.75 18.25C14.9844 18.4844 15.125 18.7422 15.1719 19.0234C15.2656 19.3047 15.2656 19.6094 15.1719 19.9375C15.125 20.2188 14.9844 20.4531 14.75 20.6406L13.2031 22.2578C12.875 22.5859 12.4766 22.75 12.0078 22.75C11.5391 22.75 11.1406 22.5859 10.8125 22.2578L1.25 12.6953C0.921875 12.3672 0.757812 11.9688 0.757812 11.5C0.757812 11.0312 0.921875 10.6328 1.25 10.3047Z" fill="#0D92D1"/>
</svg>
