<svg width="65" height="70" viewBox="0 0 65 70" fill="none" xmlns="http://www.w3.org/2000/svg">
<path fill-rule="evenodd" clip-rule="evenodd" d="M32.388 0C44.5079 7.52808 55.4569 11.0896 64.8537 10.2476C66.4949 42.7742 54.2367 61.9832 32.5136 70C11.5358 62.4964 -0.872415 44.114 0.0478527 9.75431C11.0789 10.32 21.9012 7.98324 32.388 0ZM19.6397 38.0391C18.9537 37.4638 18.8735 36.4521 19.4601 35.7793C20.0478 35.1065 21.0803 35.0285 21.7663 35.6033L28.4482 41.2287L43.0865 25.4582C43.6951 24.8031 44.7305 24.7552 45.3997 25.3511C46.0676 25.9469 46.1164 26.9615 45.5084 27.6172L29.8005 44.5407L29.7993 44.5396C29.2063 45.1781 28.2 45.2437 27.5262 44.6786L19.6397 38.0391ZM32.4008 4.01896C43.1289 10.6823 52.8211 13.8354 61.139 13.0897C62.5912 41.8809 51.741 58.8848 32.513 65.9805C13.9437 59.3388 2.95922 43.0681 3.77427 12.6528C13.5391 13.1541 23.1185 11.0856 32.4008 4.01896Z" fill="white"/>
</svg>
