<svg width="78" height="70" viewBox="0 0 78 70" fill="none" xmlns="http://www.w3.org/2000/svg">
<path d="M2.23511 53.3324C2.8279 52.6261 3.47745 52.0586 4.18376 51.5919C5.60268 50.6522 7.20448 50.1541 9.0207 49.8198C9.0207 33.9658 9.0207 18.118 9.0207 2.26396C2.14052 2.93874 2.18466 9.3018 2.2225 15.2108C2.2288 16.0054 2.23511 16.4216 2.23511 16.6171V53.3324ZM27.1072 16.1126H39.3666H40.3189V17.0649V62.1739V63.1261H39.3666H27.1072H26.1549V62.1739V17.0649V16.1126H27.1072ZM29.5856 57.7532H32.1333V59.0838H29.5856V57.7532ZM29.5856 54.0072H32.1333V55.3378H29.5856V54.0072ZM29.5856 50.2613H32.1333V51.5919H29.5856V50.2613ZM29.5856 46.509H32.1333V47.8396H29.5856V46.509ZM29.5856 42.7631H33.8171V44.0937H29.5856V42.7631ZM29.5856 39.0171H32.1333V40.3477H29.5856V39.0171ZM29.5856 35.2649H32.1333V36.5955H29.5856V35.2649ZM29.5856 31.5189H32.1333V32.8495H29.5856V31.5189ZM29.5856 27.773H32.1333V29.1036H29.5856V27.773ZM29.5856 24.0207H32.1333V25.3514H29.5856V24.0207ZM29.5856 20.2748H33.8171V21.6054H29.5856V20.2748ZM38.4144 18.0108H28.0594V61.2153H38.4144V18.0108ZM57.9955 25.5468V62.4766H49.2486V25.5468H49.2108L49.5072 24.9414L53.1207 17.5189L53.4865 16.7622L53.8711 17.5063L57.718 24.9288L58.0396 25.5468H57.9955ZM50.5666 24.6955H56.6585L54.2369 20.0288H52.8369L50.5666 24.6955ZM11.2279 9.03694H75.6973C76.1955 9.03694 76.6432 9.23874 76.9711 9.56667C77.2991 9.89459 77.5009 10.3423 77.5009 10.8405V68.1964C77.5009 68.6883 77.2991 69.136 76.9711 69.464L76.9648 69.4703C76.6369 69.7982 76.1892 70 75.6973 70H9.9225C7.22971 70 3.49637 67.8874 1.93871 65.6613C0.412588 63.4919 -0.13606 60.7045 0.0279038 57.4568V16.6171C0.0279038 15.4883 0.0279038 15.3685 0.0279038 15.2171C-0.0225467 7.99009 -0.0729969 0.176577 9.99817 0.00630631C10.0423 0 10.0802 0 10.1243 0C10.736 0 11.2279 0.491892 11.2279 1.1036V9.03694ZM2.2225 57.7216C2.10898 60.4207 2.55043 62.691 3.74232 64.3874C4.94052 66.0964 6.95223 67.2757 9.99817 67.7865H75.2937V11.2378H11.2279V50.7405H11.2216C11.2216 51.2766 10.8369 51.7432 10.2883 51.8252C8.37115 52.1216 6.73151 52.5378 5.39457 53.4207C4.1207 54.2658 3.06754 55.5901 2.2225 57.7216Z" fill="white"/>
</svg>
