<svg width="64" height="70" viewBox="0 0 64 70" fill="none" xmlns="http://www.w3.org/2000/svg">
<g clip-path="url(#clip0)">
<path d="M24.9912 58.1393C24.3456 58.1564 23.7793 57.6779 23.6887 57.0228C23.5924 56.3392 24.0511 55.7069 24.7194 55.5758C23.9832 51.3774 21.9727 49.0646 19.849 46.6208C18.1954 44.7181 16.4794 42.7414 15.1259 39.8304C13.7951 36.965 13.0645 34.0028 13.0872 30.9266C13.1155 27.8504 13.8913 24.6831 15.579 21.4076C15.5903 21.3848 15.6016 21.3677 15.6129 21.3449C17.8273 17.5737 20.925 15.0558 24.3739 13.6431C27.2678 12.4525 30.4109 12.048 33.4917 12.3328C36.5612 12.6177 39.5683 13.5861 42.1961 15.147C45.543 17.1351 48.284 20.0859 49.7961 23.8115C50.6116 25.8281 51.1666 28.0783 51.2346 30.5449C51.3025 33.0002 50.8835 35.6491 49.7565 38.4518C48.2501 42.2059 46.2566 44.5358 44.3934 46.7176C42.6775 48.7285 41.0804 50.597 40.1913 53.4624C40.6953 53.582 41.0918 53.9979 41.171 54.5448C41.2673 55.2511 40.7746 55.9062 40.0724 56.0031L39.6363 56.0658C39.557 56.6867 39.5061 57.3532 39.4834 58.0653L39.625 58.0425C40.3272 57.9456 40.9785 58.4412 41.0748 59.1476C41.171 59.854 40.6783 60.5091 39.9761 60.606L39.5344 60.6686C39.54 60.7541 39.5457 60.8395 39.5514 60.925C39.591 61.4263 39.5967 61.9105 39.5684 62.3719L39.642 62.3605C40.3499 62.2751 40.9898 62.7821 41.0804 63.4884C41.1654 64.2005 40.6613 64.8442 39.9591 64.9354L39.0077 65.055C38.3281 66.8267 37.1162 68.1768 35.6834 69.0085C34.698 69.5838 33.605 69.9142 32.5063 69.9826C31.3907 70.0509 30.2637 69.8402 29.233 69.3389C28.055 68.7578 27.0017 67.7951 26.2371 66.4108C25.869 66.2228 25.5972 65.8582 25.5406 65.4139C25.5179 65.2373 25.5349 65.0664 25.5802 64.9069C25.3593 64.2461 25.1951 63.5226 25.0875 62.7251L25.0479 62.7308C24.3456 62.8276 23.6944 62.332 23.5981 61.6257C23.5018 60.9193 23.9945 60.2642 24.6967 60.1673L25.0026 60.1217C25.0252 59.4268 25.0195 58.7659 24.9912 58.1393ZM33.6503 37.5404C33.6503 37.0106 33.5257 36.6004 33.2595 36.2985C32.999 35.9966 32.5516 35.7231 31.9004 35.4497C31.2604 35.1877 30.6544 34.9142 30.1108 34.6465C29.5671 34.373 29.0914 34.0597 28.695 33.7008C28.2985 33.342 27.9984 32.9318 27.7832 32.459C27.568 31.9919 27.4717 31.4222 27.4717 30.75C27.4717 29.6278 27.8512 28.7049 28.5987 27.9871C29.3462 27.2637 30.3486 26.8364 31.6002 26.7168V25.2129H33.1746V26.7567C34.3808 26.9333 35.3323 27.4289 36.0232 28.2492C36.7141 29.0695 37.0652 30.1063 37.0652 31.3652H33.7126C33.7126 30.6702 33.5767 30.1462 33.3162 29.7702C33.0556 29.3999 32.6762 29.2119 32.1892 29.2119C31.7531 29.2119 31.4133 29.3486 31.1811 29.6221C30.9376 29.8955 30.8243 30.2772 30.8243 30.7557C30.8243 31.2456 30.9603 31.633 31.2434 31.9292C31.5266 32.2197 31.9626 32.4932 32.5743 32.7609C33.1859 33.0229 33.7692 33.2964 34.3129 33.5698C34.8566 33.8547 35.3209 34.1737 35.723 34.5269C36.1194 34.8857 36.4309 35.3073 36.6575 35.7858C36.8783 36.2643 36.9972 36.834 36.9972 37.5062C36.9972 38.6398 36.6405 39.5684 35.9212 40.2804C35.202 40.9925 34.2279 41.4141 32.999 41.5337V42.9408H31.4246V41.528C29.9862 41.3742 28.8819 40.8843 28.1117 40.0412C27.3415 39.1981 26.9564 38.0986 26.9564 36.7201H30.2977C30.2977 37.4834 30.4619 38.0474 30.7904 38.4518C31.1188 38.8449 31.5945 39.05 32.2062 39.05C32.6536 39.05 33.0047 38.9132 33.2652 38.6512C33.52 38.3892 33.6559 38.0132 33.6559 37.5461H33.6503V37.5404ZM1.23404 33.5299C0.571445 33.547 0.0221132 33.0286 -0.00053964 32.3621C-0.0231925 31.6956 0.497823 31.1431 1.16042 31.1203L6.08742 30.9494C6.75001 30.9266 7.29935 31.4507 7.322 32.1172C7.34465 32.7837 6.82364 33.3363 6.16104 33.3591L1.23404 33.5299ZM62.6799 28.6252C63.3369 28.5568 63.9258 29.041 63.9938 29.7018C64.0618 30.3626 63.5804 30.9551 62.9235 31.0234L58.0191 31.5418C57.3622 31.6102 56.7732 31.126 56.7052 30.4652C56.6373 29.8044 57.1187 29.2119 57.7756 29.1436L62.6799 28.6252ZM53.749 8.41927C54.1171 7.8667 54.859 7.71859 55.4084 8.08887C55.9577 8.45915 56.1049 9.2054 55.7368 9.75797L52.9958 13.8823C52.6277 14.4349 51.8858 14.583 51.3365 14.2127C50.7872 13.8424 50.6399 13.0962 51.008 12.5436L53.749 8.41927ZM32.6366 1.17318C32.6536 0.506673 33.2029 -0.0174159 33.8598 -0.000326079C34.5168 0.0167638 35.0434 0.569336 35.0264 1.23014L34.9019 6.1862C34.8849 6.8527 34.3355 7.37679 33.6786 7.3597C33.016 7.34261 32.495 6.79004 32.512 6.12923L32.6366 1.17318ZM7.86 8.84652C7.37297 8.39079 7.35031 7.62744 7.79771 7.14323C8.25077 6.65332 9.00964 6.63053 9.49101 7.08057L13.0985 10.4644C13.5855 10.9201 13.6082 11.6834 13.1608 12.1676C12.7077 12.6576 11.9488 12.6803 11.4675 12.2303L7.86 8.84652ZM27.1149 55.2284L37.5862 53.7301C38.4867 49.9134 40.4461 47.6177 42.5699 45.1396C44.3141 43.1003 46.1717 40.9242 47.5308 37.5404C48.5276 35.0623 48.8957 32.7381 48.839 30.5962C48.7824 28.46 48.2954 26.4889 47.5705 24.7059C46.2679 21.4987 43.8837 18.9466 40.9728 17.2148C38.6452 15.8306 35.9892 14.9704 33.2765 14.7254C30.5752 14.4748 27.8172 14.8337 25.2744 15.8761C22.2955 17.1009 19.6168 19.277 17.6913 22.5526C16.1963 25.4692 15.5053 28.2606 15.4827 30.9437C15.46 33.6439 16.1113 36.2586 17.2949 38.805C18.5012 41.4027 20.1095 43.2484 21.6499 45.0257C24.0511 47.7943 26.3221 50.409 27.1149 55.2284ZM37.1615 56.4076L27.3811 57.8032C27.4094 58.4299 27.4207 59.085 27.4094 59.7799L37.0652 58.4014C37.0765 57.7007 37.1049 57.0342 37.1615 56.4076ZM27.4604 62.389C27.5284 62.9131 27.6303 63.3916 27.7605 63.8359L37.1332 62.6738C37.1955 62.1839 37.2068 61.6655 37.1615 61.113V61.1016L37.1558 61.0047L27.4604 62.389ZM29.0914 66.2855C29.4538 66.6672 29.8559 66.9634 30.2807 67.1685C30.9319 67.4875 31.6512 67.6185 32.3591 67.5786C33.084 67.533 33.8145 67.3109 34.4771 66.9235C35.1001 66.5589 35.6607 66.0519 36.1081 65.4139L29.0914 66.2855Z" fill="white"/>
</g>
<defs>
<clipPath id="clip0">
<rect width="64" height="70" fill="white"/>
</clipPath>
</defs>
</svg>
