<svg width="79" height="70" viewBox="0 0 79 70" fill="none" xmlns="http://www.w3.org/2000/svg">
<path d="M2.26704 53.3324C2.8683 52.6261 3.52713 52.0586 4.24353 51.5919C5.68272 50.6522 7.3074 50.1541 9.14956 49.8198C9.14956 33.9658 9.14956 18.118 9.14956 2.26396C2.1711 2.93874 2.21587 9.3018 2.25425 15.2108C2.26064 16.0054 2.26704 16.4216 2.26704 16.6171V53.3324ZM11.3883 19.6441H45.7689V11.2378H11.3883V19.6441ZM43.6581 21.2901H11.3883V39.2063H25.1406C24.8527 38.8279 24.6736 38.3802 24.616 37.8883C24.5265 37.0874 24.7696 36.173 25.4604 35.3216C25.4924 35.2775 25.5371 35.2396 25.5819 35.2018L43.6581 21.2901ZM30.5199 39.2063H45.7625V27.3315L30.5007 39.0613C30.5135 39.1117 30.5199 39.1622 30.5199 39.2063ZM47.4192 39.2063H61.8047V39.1937C61.8047 39.1432 61.8111 39.0991 61.8175 39.055L47.4192 27.7414V39.2063ZM67.4079 39.2063H76.3629V11.2378H47.4192V20.2559L66.8323 35.1324C66.8643 35.1577 66.8898 35.1829 66.9218 35.2144C67.8557 36.2045 68.086 37.3081 67.8621 38.2351C67.7725 38.5946 67.619 38.9225 67.4079 39.2063ZM76.3629 40.8522H63.6788V58.5982C63.6788 59.0018 63.3462 59.3297 62.9369 59.3297H29.3942C28.9848 59.3297 28.6522 59.0018 28.6522 58.5982V40.8522H11.3883V50.7405H11.3819C11.3819 51.2766 10.9917 51.7432 10.4352 51.8252C8.49073 52.1216 6.82767 52.5378 5.47164 53.4207C4.17317 54.2658 3.10497 55.5838 2.24146 57.7153C2.12632 60.4144 2.57407 62.6847 3.78299 64.3811C4.9983 66.0901 7.03875 67.2694 10.1282 67.7802H76.3565V40.8522H76.3629ZM61.8047 40.8522H47.4192V57.482H61.8047V40.8522ZM45.7689 40.8522H30.5263V57.482H45.7689V40.8522ZM47.4192 22.1036V25.8748L63.8579 38.4748C63.8643 38.4811 63.8707 38.4874 63.8835 38.4937C64.5104 38.9351 65.1116 39.0108 65.5722 38.8468C65.7897 38.7712 65.9752 38.645 66.1223 38.4811C66.2694 38.3171 66.3781 38.1216 66.4293 37.9009C66.5444 37.4216 66.4037 36.8288 65.8856 36.255L47.4192 22.1036ZM45.7689 25.4901V21.5045L26.5606 36.2928C26.1704 36.7973 26.0297 37.3018 26.0808 37.7243C26.1064 37.9703 26.196 38.1847 26.3367 38.355C26.471 38.5252 26.6629 38.6577 26.8868 38.727C27.2706 38.8532 27.7695 38.8216 28.3388 38.5568L45.7689 25.4901ZM11.3883 9.03694H76.7787C77.284 9.03694 77.7381 9.23874 78.0707 9.56667C78.4034 9.89459 78.608 10.3423 78.608 10.8405V68.1964C78.608 68.6883 78.4034 69.136 78.0707 69.464L78.0643 69.4703C77.7317 69.7982 77.2776 70 76.7787 70H10.0642C7.33299 70 3.54632 67.8874 1.96641 65.6613C0.418482 63.4919 -0.138004 60.7045 0.0283024 57.4568V16.6171C0.0283024 15.4883 0.0283024 15.3685 0.0283024 15.2171C-0.0228688 7.99009 -0.0740397 0.176577 10.141 0.00630631C10.1858 0 10.2242 0 10.2689 0C10.8894 0 11.3883 0.491892 11.3883 1.1036V9.03694Z" fill="white"/>
</svg>
