<svg width="75" height="71" viewBox="0 0 75 71" fill="none" xmlns="http://www.w3.org/2000/svg">
<path d="M40.5306 61.0008H53.9038C54.978 59.9327 56.1561 58.8218 57.3524 57.6926C59.861 55.3183 62.4795 52.8402 65.1712 49.7395C68.2475 46.1933 68.5771 44.9664 69.5109 41.4934C69.6879 40.8403 69.8833 40.1079 70.1396 39.1984L71.7388 33.5769L71.7571 33.5159C72.6116 31.0134 72.6788 29.3593 72.3247 28.4071C72.2149 28.1141 72.0745 27.9188 71.9097 27.8151C71.7815 27.7296 71.6106 27.6991 71.4336 27.7174C71.0185 27.7601 70.5486 28.0226 70.1213 28.4926L65.3665 39.7966C65.3238 39.9004 65.2628 39.998 65.1956 40.0835C64.9149 40.5901 64.5364 41.0845 64.0481 41.5545L55.625 50.9481C55.1673 51.4608 54.3799 51.5035 53.8733 51.0457C53.3606 50.5879 53.3178 49.8006 53.7756 49.294L62.2048 39.9004C62.2414 39.8576 62.2781 39.8149 62.3208 39.7783C63.1936 38.9482 63.4683 38.0509 63.3157 37.3979C63.2669 37.1964 63.1814 37.0255 63.0593 36.9096C62.9434 36.8058 62.7908 36.7326 62.6016 36.7142C61.8508 36.6349 60.746 37.1903 59.3971 38.7834C59.3605 38.8261 59.3178 38.8688 59.275 38.9116L56.0096 41.7925L55.9913 41.8108C52.4572 45.1556 50.9374 45.9491 48.1663 47.3957C47.5865 47.7009 46.9517 48.0305 46.1643 48.4577C45.853 48.6286 45.5478 48.8362 45.2488 49.062C44.9314 49.3062 44.6262 49.5564 44.3393 49.8006C42.8744 51.0335 42.1054 52.0345 41.6659 53.1393C41.2081 54.2868 41.0433 55.6845 40.8175 57.6011C40.7259 58.3762 40.6588 59.1392 40.6038 59.9022C40.5672 60.2806 40.5489 60.6468 40.5306 61.0008ZM52.9638 33.7967V35.2005C52.9638 35.5606 52.6708 35.8536 52.3046 35.8536H22.5125C22.1524 35.8536 21.8594 35.5606 21.8594 35.2005V18.4581C21.127 18.7389 20.4434 18.745 19.8696 18.5558C19.424 18.4032 19.0517 18.1346 18.7709 17.7867C18.4963 17.4388 18.3193 17.0115 18.2643 16.5476C18.185 15.8274 18.3986 15.0034 19.0151 14.2404C19.0456 14.2038 19.0822 14.1672 19.125 14.1367L36.9966 0.171441C37.2285 -0.0421879 37.5886 -0.060499 37.845 0.140923L55.7654 14.0695C55.7898 14.094 55.8204 14.1123 55.8448 14.1428C56.6749 15.0339 56.8824 16.0288 56.681 16.865C56.5833 17.2801 56.3819 17.6524 56.1133 17.9576C55.8387 18.2628 55.4908 18.5008 55.1001 18.6473C54.4714 18.8732 53.7268 18.867 52.9699 18.5069V33.7967H52.9638ZM19.9917 15.1133C19.6438 15.565 19.5217 16.0227 19.5644 16.4073C19.5888 16.627 19.6682 16.8223 19.7903 16.9749C19.9123 17.1275 20.0771 17.2435 20.2786 17.3106C20.6204 17.4266 21.0598 17.3961 21.5664 17.158L37.1675 5.29244C37.4116 5.10933 37.7351 5.11543 37.9671 5.29854L53.1225 17.0787C53.1286 17.0848 53.1347 17.0909 53.1408 17.097C53.6963 17.4998 54.2273 17.5609 54.6423 17.4144C54.8316 17.3472 55.0025 17.2313 55.1306 17.0848C55.2588 16.9383 55.3565 16.7613 55.4053 16.566C55.5091 16.1326 55.387 15.6016 54.917 15.0828L37.4421 1.48374L19.9917 15.1133ZM27.5236 23.6523H35.8857C36.2153 23.6523 36.4778 23.9087 36.4778 24.2322V30.7753C36.4778 31.0927 36.2153 31.3552 35.8857 31.3552H27.5236C27.2001 31.3552 26.9316 31.0927 26.9316 30.7753V24.2322C26.9316 23.9087 27.194 23.6523 27.5236 23.6523ZM39.4686 23.0725H47.324C47.678 23.0725 47.9588 23.3655 47.9588 23.7317V34.5474H51.6515V17.7257C51.6515 17.6829 51.6576 17.6402 51.6637 17.5975L37.5642 6.63525L23.1473 17.6036C23.1595 17.6585 23.1717 17.7135 23.1717 17.7745V34.5474H38.8338V23.7317C38.8338 23.3716 39.1145 23.0725 39.4686 23.0725ZM46.6831 24.3909H40.1033V34.5352H46.6831V24.3909ZM35.2936 28.0836H32.1869V30.1955H35.2936V28.0836ZM31.0333 28.0836H28.1157V30.1955H31.0333V28.0836ZM28.1157 26.9239H31.0333V24.812H28.1157V26.9239ZM32.1869 26.9239H35.2936V24.812H32.1869V26.9239V26.9239ZM37.3201 11.3839C38.4309 11.3839 39.3343 12.2873 39.3343 13.3981C39.3343 14.509 38.4309 15.4124 37.3201 15.4124C36.2092 15.4124 35.3058 14.509 35.3058 13.3981C35.3058 12.2873 36.2092 11.3839 37.3201 11.3839ZM34.4635 61.0008H21.0842C20.01 59.9327 18.832 58.8218 17.6357 57.6926C15.127 55.3183 12.5086 52.8402 9.81683 49.7395C6.74057 46.1933 6.41097 44.9664 5.4771 41.4934C5.3001 40.8403 5.10478 40.1079 4.84842 39.1984L3.24926 33.5769L3.23095 33.5159C2.37643 31.0134 2.30929 29.3593 2.6633 28.4071C2.77317 28.1141 2.91355 27.9188 3.07835 27.8151C3.20653 27.7296 3.37743 27.6991 3.55444 27.7174C3.96949 27.7601 4.43948 28.0226 4.86673 28.4926L9.61541 39.8027C9.65813 39.9065 9.71917 40.0041 9.78631 40.0896C10.0671 40.5962 10.4455 41.0906 10.9338 41.5606L19.3569 50.9542C19.8147 51.4669 20.6021 51.5096 21.1087 51.0518C21.6214 50.594 21.6641 49.8067 21.2063 49.3001L12.7893 39.9004C12.7527 39.8576 12.7161 39.8149 12.6734 39.7783C11.8005 38.9482 11.5259 38.0509 11.6785 37.3979C11.7273 37.1964 11.8127 37.0255 11.9348 36.9096C12.0508 36.8058 12.2034 36.7326 12.3926 36.7142C13.1433 36.6349 14.2542 37.1903 15.597 38.7834C15.6336 38.8261 15.6764 38.8688 15.7191 38.9116L18.9846 41.7925L19.0029 41.8108C22.5369 45.1556 24.0567 45.9491 26.8278 47.3957C27.4077 47.7009 28.0425 48.0305 28.8298 48.4577C29.1411 48.6286 29.4463 48.8362 29.7454 49.062C30.0628 49.3062 30.368 49.5564 30.6548 49.8006C32.1197 51.0335 32.8888 52.0345 33.3282 53.1393C33.786 54.2868 33.9508 55.6845 34.1767 57.6011C34.2682 58.3762 34.3354 59.1392 34.3903 59.9022C34.4269 60.2806 34.4452 60.6468 34.4635 61.0008ZM17.9714 61.4281C17.7821 61.6478 17.6662 61.9347 17.6662 62.246V69.6559C17.6662 70.3456 18.2277 70.901 18.9113 70.901H35.7453C36.435 70.901 36.9905 70.3456 36.9905 69.6559V62.1727C36.9905 61.3793 36.9416 60.5247 36.8867 59.7313C36.8318 58.9195 36.7585 58.1138 36.667 57.3142C36.4228 55.2206 36.2397 53.6886 35.6538 52.2176C35.0495 50.71 34.079 49.4099 32.2784 47.8901C31.9488 47.6093 31.6131 47.3286 31.2591 47.0661C30.8868 46.7853 30.4839 46.5168 30.0323 46.2665C29.2998 45.8698 28.6162 45.5097 27.9936 45.1801C25.4301 43.8372 24.0262 43.1048 20.7241 39.9797C20.6997 39.9553 20.6692 39.9309 20.6448 39.9126L17.4525 37.111C15.5055 34.8343 13.6011 34.0774 12.1423 34.2361H12.1362C11.4221 34.3094 10.8117 34.5902 10.3234 35.0174L7.10679 27.3512H7.10069C7.05186 27.2413 6.99082 27.1375 6.91147 27.0399C6.02033 25.9717 4.89115 25.3492 3.8108 25.2393C3.07225 25.1661 2.35812 25.3248 1.73554 25.7276C1.14348 26.1121 0.655187 26.7103 0.350003 27.5343C-0.187122 28.9687 -0.174915 31.1965 0.87492 34.2789L2.46188 39.8637C2.69382 40.6694 2.89524 41.4446 3.08446 42.1282C4.12208 46.0041 4.48831 47.3774 7.9491 51.357C10.6897 54.5126 13.3692 57.0517 15.9449 59.4871C16.6163 60.1402 17.2877 60.775 17.9714 61.4281ZM20.3518 63.4972C20.5166 63.5339 20.6875 63.5339 20.8584 63.4972H34.4941V68.4168H20.1565V63.4972H20.3518ZM57.0228 61.4281C57.212 61.6478 57.328 61.9347 57.328 62.246V69.6559C57.328 70.3456 56.7725 70.901 56.0828 70.901H39.2549C38.5652 70.901 38.0098 70.3456 38.0098 69.6559V62.1727C38.0098 62.13 38.0098 62.0812 38.0159 62.0385C38.0342 61.2389 38.0647 60.4637 38.1135 59.7313C38.1685 58.9195 38.2417 58.1138 38.3333 57.3142C38.5774 55.2206 38.7605 53.6886 39.3465 52.2176C39.9508 50.71 40.9212 49.4099 42.7218 47.8901C43.0514 47.6093 43.3871 47.3286 43.7411 47.0661C44.1135 46.7853 44.5163 46.5168 44.968 46.2665C45.7004 45.8698 46.384 45.5097 47.0066 45.1801C49.5702 43.8372 50.974 43.1048 54.2761 39.9797C54.3005 39.9553 54.3311 39.9309 54.3555 39.9126L57.5416 37.0988C59.4887 34.8221 61.393 34.0652 62.8518 34.2239H62.8579C63.572 34.2972 64.1824 34.5779 64.6707 35.0052L67.8874 27.339H67.8935C67.9423 27.2291 68.0033 27.1253 68.0827 27.0277C68.9738 25.9595 70.103 25.337 71.1833 25.2271C71.9219 25.1539 72.636 25.3125 73.2586 25.7154C73.8507 26.0999 74.339 26.6981 74.6441 27.5221C75.1813 28.9565 75.1691 31.1843 74.1192 34.2667L72.5323 39.8515C72.3003 40.6572 72.0989 41.4324 71.9097 42.116C70.8721 45.9919 70.5058 47.3652 67.045 51.3448C64.3045 54.5004 61.625 57.0395 59.0492 59.4749C58.3778 60.1402 57.7064 60.775 57.0228 61.4281ZM54.6423 63.4972C54.4775 63.5339 54.3066 63.5339 54.1357 63.4972H40.5001V68.4168H54.8377V63.4972H54.6423Z" fill="white"/>
</svg>
