<svg width="70" height="71" viewBox="0 0 70 71" fill="none" xmlns="http://www.w3.org/2000/svg">
<path d="M55.7475 41.8133C55.7348 41.9114 55.7031 42.0094 55.6522 42.0959C55.5951 42.3151 55.5696 42.5632 55.5696 42.8342C55.5696 42.8631 55.576 42.8862 55.576 42.915V60.8821C55.8238 61.4474 56.1351 61.8685 56.5036 62.1338C56.8467 62.3818 57.266 62.5029 57.7807 62.4799C57.8188 62.4741 57.8505 62.4741 57.8887 62.4741H63.5623C63.5751 62.4741 63.5941 62.4741 63.6068 62.4741C64.49 62.5145 65.1317 62.2953 65.5573 61.8512C66.0402 61.3494 66.3198 60.5303 66.4151 59.4402V59.4286L68.1432 43.2149C68.1432 43.1919 68.1432 43.163 68.1496 43.1399C68.2703 42.2171 68.0479 41.6172 67.546 41.2711C66.9742 40.8674 66.0148 40.7001 64.7822 40.7059C64.7505 40.7059 64.725 40.7116 64.6933 40.7116H58.3016V40.7059C57.3232 40.7059 56.6116 40.8847 56.1732 41.2423C55.989 41.398 55.8492 41.5826 55.7475 41.8133ZM31.5661 15.5634H40.1942C40.5309 15.5634 40.8041 15.8056 40.8041 16.1056V22.2311C40.8041 22.5311 40.5309 22.7733 40.1942 22.7733H31.5661C31.2294 22.7733 30.9562 22.5311 30.9562 22.2311V16.1056C30.9562 15.8056 31.2294 15.5634 31.5661 15.5634ZM39.5842 19.7105H36.3821V21.6889H39.5842V19.7105ZM35.1876 19.7105H32.1761V21.6889H35.1876V19.7105ZM32.1761 18.6262H35.1876V16.6478H32.1761V18.6262ZM36.3821 18.6262H39.5842V16.6478H36.3821V18.6262ZM15.0343 36.6106V22.3292C14.0559 22.6695 13.1473 22.6753 12.3849 22.4446C11.794 22.2657 11.2921 21.937 10.9236 21.5159C10.5551 21.0949 10.32 20.5815 10.2501 20.022C10.1421 19.1511 10.428 18.1532 11.254 17.2303C11.2921 17.1842 11.3429 17.138 11.3938 17.1034L35.2194 0.209118C35.5243 -0.0504393 36.0072 -0.0735111 36.3439 0.168743L60.2204 17.0169C60.2585 17.04 60.2903 17.0688 60.3221 17.1034C61.4276 18.182 61.7008 19.3818 61.4339 20.3969C61.3005 20.893 61.04 21.3486 60.6779 21.7178C60.3157 22.0869 59.8519 22.3753 59.3246 22.5484C58.4859 22.8252 57.4948 22.8137 56.4909 22.3811V35.9531L54.7437 34.6668V21.4409C54.7437 21.389 54.75 21.3371 54.7627 21.291L35.9627 8.03045L16.7561 21.2967C16.7752 21.3602 16.7879 21.4294 16.7879 21.4986V36.1838L15.0343 36.6106ZM12.5564 18.2801C12.0926 18.828 11.9274 19.376 11.9846 19.8432C12.0164 20.1085 12.1244 20.345 12.2896 20.5354C12.4484 20.7199 12.6708 20.8641 12.9377 20.9449C13.3951 21.0833 13.9796 21.0487 14.6531 20.7603L35.4354 6.40389C35.6895 6.23085 36.0072 6.19625 36.2804 6.2943C36.4583 6.35775 36.6362 6.50195 36.7887 6.60577L56.7006 20.6507C56.7069 20.6565 56.7196 20.6623 56.726 20.668C57.463 21.1525 58.1746 21.2275 58.721 21.0487C58.9751 20.968 59.1975 20.8295 59.369 20.6507C59.5406 20.4719 59.6676 20.2585 59.7312 20.022C59.871 19.4971 59.7058 18.8569 59.0831 18.2224L35.8103 1.80107L12.5564 18.2801ZM30.2255 27.9126H40.6897C41.1599 27.9126 41.5411 28.2702 41.5411 28.7085V32.0886L39.8447 31.5521V29.5045H31.0705V31.5521L29.3742 32.0886V28.7085C29.3742 28.2702 29.7554 27.9126 30.2255 27.9126ZM49.4957 61.6954C49.3559 61.5801 49.2606 61.4243 49.2225 61.2513L40.1052 46.3527C39.095 44.8184 38.1801 44.778 37.297 45.2568C36.6743 45.5971 36.0136 46.145 35.3528 46.693C34.9525 47.0218 34.5586 47.3563 34.2155 47.6043L32.6526 48.781L32.6399 48.7868C31.5026 49.6231 30.2128 50.0672 28.9929 50.1595C28.1924 50.2172 27.4109 50.1249 26.712 49.8884C25.9877 49.6404 25.3524 49.2424 24.8695 48.7002C24.3485 48.1177 24.0118 47.3736 23.9292 46.4911H23.9356C23.9165 46.2835 23.9864 46.0643 24.1452 45.8913L29.1264 40.5098C28.078 40.4982 27.1504 40.6251 26.28 40.8731C24.9521 41.2481 23.7132 41.9056 22.3535 42.742C22.2011 42.8515 22.0041 42.9208 21.7881 42.9208H16.0382V52.7609L16.0636 59.0537H19.3992C19.7168 59.0537 20.0218 59.2037 20.1933 59.469L24.3358 66.0329C24.9394 66.9904 25.4731 67.8152 26.1466 68.3632C26.7756 68.8708 27.5952 69.188 28.8595 69.2226C29.336 69.2341 29.7871 69.1591 30.2192 68.9977C30.486 68.8996 30.7465 68.7669 31.0007 68.5939L28.3131 64.0314C28.078 63.6277 28.2432 63.1259 28.688 62.9125C29.1327 62.6991 29.6855 62.849 29.9206 63.2528L32.8432 68.2132C33.9296 68.715 34.9144 68.8708 35.8039 68.6977C36.6171 68.5362 37.3796 68.0978 38.0975 67.3826L33.8915 61.384C33.6183 60.9975 33.7454 60.4899 34.1711 60.2419C34.5967 59.9939 35.1558 60.1092 35.429 60.4957L39.8638 66.8174C40.6389 67.1058 41.3886 67.1692 42.1002 66.9904C42.78 66.8231 43.4599 66.4251 44.1397 65.7849L40.1243 58.9153C39.8892 58.5115 40.0544 58.0097 40.5055 57.7905C40.9502 57.5771 41.503 57.7271 41.7444 58.1366L45.8996 65.2427C46.4397 65.5253 47.0687 65.6003 47.6659 65.5138C48.1932 65.4331 48.6952 65.2312 49.1145 64.9312C49.5148 64.6428 49.8261 64.2679 49.9786 63.8411C50.1438 63.3797 50.131 62.8433 49.8578 62.2549L49.4957 61.6954ZM50.7029 60.2534H53.7462V42.9208C53.7462 42.8977 53.7462 42.8746 53.7462 42.8573C53.7462 42.5862 53.7652 42.3324 53.8034 42.0902L50.7092 40.2156C50.6902 40.2041 50.6774 40.1925 50.6584 40.181C50.2581 39.933 49.7752 39.6273 49.286 39.3216C47.5261 38.2026 45.7154 37.049 43.7648 36.5876C42.7102 36.3338 41.4903 36.1665 40.2514 36.1492C39.1649 36.1319 38.0594 36.2242 37.0174 36.4664C36.3948 36.6106 35.7975 36.8125 35.2384 37.0836C34.7429 37.3201 34.2791 37.6143 33.8724 37.9603L31.7948 40.2041C31.7313 40.3136 31.6424 40.4117 31.5343 40.4867L25.8035 46.6642C25.8861 47.0564 26.0576 47.3909 26.2927 47.6562C26.5659 47.9619 26.9281 48.1927 27.3474 48.3311C27.7921 48.4811 28.3004 48.5387 28.8405 48.4984C29.7172 48.4349 30.6449 48.1061 31.4835 47.4947L33.0465 46.3181C33.4468 46.0182 33.7835 45.7413 34.1139 45.4644C34.8509 44.853 35.5815 44.2474 36.3503 43.8321C38.1356 42.8689 39.9083 42.8342 41.6682 45.5106L41.6872 45.5394L50.7029 60.2534ZM54.0829 61.9146H51.6495C51.9799 62.7856 51.9609 63.6162 51.7004 64.3487C51.4335 65.1043 50.9062 65.7445 50.2391 66.229C49.5846 66.702 48.7841 67.025 47.9518 67.1461C47.1322 67.2673 46.2808 67.2038 45.4866 66.9039C44.5654 67.7806 43.5933 68.3343 42.5767 68.5881C41.5602 68.8419 40.5246 68.79 39.4826 68.4612C38.4914 69.4591 37.3986 70.082 36.1915 70.3185C34.9652 70.5608 33.6564 70.3935 32.2714 69.7994C31.8393 70.1051 31.3882 70.3473 30.9181 70.5262C30.2509 70.7799 29.5521 70.8953 28.815 70.8722C27.0615 70.8261 25.8797 70.3531 24.9394 69.5917C24.0436 68.865 23.44 67.9306 22.7602 66.852L18.8782 60.7091H15.8666C15.6951 61.5051 15.3901 62.1742 14.9327 62.7106C14.1639 63.6104 13.0393 64.0834 11.4827 64.0545C11.4636 64.0545 11.4509 64.0545 11.4319 64.0545H6.27283C4.97671 64.2449 3.8585 63.9565 2.98807 63.0394C2.21294 62.2261 1.6856 60.911 1.46323 58.973C1.45688 58.9499 1.45688 58.9268 1.45052 58.9037L0.0972265 43.6475C-0.169621 41.9979 0.12264 40.8385 0.853293 40.0426C1.5903 39.2408 2.69581 38.8774 4.06181 38.8198C4.09993 38.814 4.13805 38.814 4.17617 38.814H11.1206V38.8198C12.4294 38.8082 13.5603 39.0043 14.418 39.5061C15.1042 39.9099 15.5998 40.4809 15.8539 41.2538H21.5085C22.9317 40.3829 24.2596 39.7022 25.7336 39.2812C27.1758 38.8717 28.7261 38.7275 30.5813 38.9293L32.4747 36.8817C32.5064 36.8413 32.5446 36.801 32.589 36.7664C33.1291 36.3049 33.7327 35.9185 34.3807 35.607C35.0605 35.2782 35.7975 35.0302 36.5536 34.8514C37.7608 34.5688 39.0378 34.4592 40.2768 34.4823C41.6809 34.5053 43.0469 34.6957 44.2286 34.9725C46.4841 35.5089 48.4347 36.7491 50.328 37.9546C50.7537 38.2257 51.1667 38.491 51.6686 38.7909C51.6876 38.8024 51.7004 38.8082 51.7194 38.8198L54.4641 40.4809C54.6039 40.3079 54.7627 40.1464 54.9406 40.0022C55.7285 39.3619 56.853 39.0447 58.2953 39.0447V39.0389H64.6869C64.7123 39.0389 64.7377 39.0389 64.7632 39.0447C66.4024 39.0389 67.7302 39.31 68.6515 39.956C69.6808 40.6713 70.1573 41.7672 69.954 43.3361C69.954 43.3476 69.9476 43.3649 69.9476 43.3764L68.2258 59.5728C68.0987 61.0206 67.6731 62.1569 66.9233 62.9413C66.1228 63.7777 65.0109 64.1929 63.5496 64.1353H57.8696C56.8848 64.1814 56.0525 63.9392 55.3536 63.4316C54.8453 63.0624 54.4197 62.5548 54.0829 61.9146ZM7.97557 55.6218C8.65539 55.6218 9.20815 56.1236 9.20815 56.7408C9.20815 57.3579 8.65539 57.8597 7.97557 57.8597C7.29574 57.8597 6.74299 57.3579 6.74299 56.7408C6.74299 56.1236 7.29574 55.6218 7.97557 55.6218ZM61.7834 55.6218C62.4632 55.6218 63.0159 56.1236 63.0159 56.7408C63.0159 57.3579 62.4632 57.8597 61.7834 57.8597C61.1035 57.8597 60.5508 57.3579 60.5508 56.7408C60.5508 56.1236 61.1035 55.6218 61.7834 55.6218ZM14.2147 50.8402L14.1829 42.0844C14.1829 42.0671 14.1829 42.0498 14.1829 42.0325C14.0813 41.4845 13.8208 41.1212 13.4332 40.8904C12.9059 40.579 12.1117 40.4579 11.1333 40.4694H11.1206V40.4752H4.18253C4.16982 40.4752 4.15711 40.4752 4.14441 40.4752C3.28668 40.5098 2.62592 40.7001 2.25742 41.1039C1.8635 41.5307 1.72372 42.2748 1.91433 43.4283C1.92068 43.4514 1.92068 43.4745 1.92068 43.4976L3.28033 58.7711V58.7999C3.46458 60.3803 3.83944 61.3955 4.37313 61.955C4.79246 62.3991 5.37063 62.526 6.05681 62.4107C6.10764 62.3991 6.16482 62.3991 6.21565 62.3991V62.3933H11.4255C11.4573 62.3933 11.4891 62.3933 11.5208 62.3991C12.4421 62.4107 13.0774 62.1626 13.4777 61.6954C13.9479 61.1475 14.1702 60.288 14.2084 59.1806L14.2147 50.8402Z" fill="white"/>
</svg>
