<svg width="73" height="70" viewBox="0 0 73 70" fill="none" xmlns="http://www.w3.org/2000/svg">
<path d="M51.4766 51.8337V69.9942H48.6726V50.7103L45.1022 49.2784L37.5515 57.3342H35.4485L27.8978 49.2784L24.3274 50.7103V69.9884H21.5234V51.8337L16.2004 53.964V69.9825H13.3964V55.0816L9.52303 56.6299C7.43783 57.7591 5.82788 59.1212 4.71102 60.7218C3.60604 62.3051 2.96444 64.1444 2.80404 66.2515V69.9767H0V66.234C0 66.2049 0 66.1758 0.00594076 66.1467C0.196045 63.5565 0.986166 61.269 2.38224 59.2725C3.75456 57.3109 5.6853 55.6637 8.16854 54.3249C8.22795 54.29 8.29329 54.2609 8.35864 54.2318L26.7037 46.8919V41.63C26.5195 41.4729 26.3413 41.3099 26.169 41.1411C23.6086 38.6731 21.8857 34.9886 21.3927 29.4357L20.4659 28.516C20.1867 28.2774 20.0085 27.9282 20.0085 27.544V25.3903H22.8125V27.0201L23.763 27.9631C23.9947 28.1959 24.1254 28.4869 24.1432 28.7838C24.5234 33.9118 25.9849 37.2005 28.1651 39.3076C30.2741 41.339 33.1435 42.3227 36.4049 42.8174C39.9041 42.2703 42.6546 40.8035 44.6329 38.5509C46.7419 36.1528 48.0132 32.835 48.4112 28.7722C48.435 28.5102 48.5419 28.2774 48.7023 28.0853H48.6964L49.5518 27.0551L49.5697 25.2914L52.3618 25.3147L52.344 27.4276C52.3678 27.7419 52.2727 28.062 52.0529 28.3298L51.1558 29.4124C50.6628 33.8303 49.1954 37.4915 46.7953 40.2272C46.4389 40.6347 46.0646 41.0189 45.6666 41.3797V46.6533L64.6414 54.2492C64.7067 54.2784 64.7721 54.3075 64.8315 54.3424C67.3147 55.6811 69.2454 57.3284 70.6178 59.29C72.0079 61.2806 72.804 63.5682 72.9941 66.1642C72.9941 66.1933 73 66.2224 73 66.2515V70H70.196V66.2631C70.0296 64.156 69.394 62.3109 68.289 60.7335C67.1721 59.1328 65.5681 57.7708 63.477 56.6415L59.6036 55.0933V69.9942H56.7996V53.9582L51.4766 51.8337ZM30.4464 3.86548C30.286 3.8713 30.1315 3.8422 29.9889 3.79563C25.9076 5.58258 22.6046 9.51153 21.7075 16.054C21.6125 16.7757 20.9115 17.2821 20.1451 17.1948C19.3787 17.1017 18.8381 16.444 18.9332 15.728C19.9788 8.10293 23.9709 3.49295 28.9077 1.37423C31.3969 0.303224 34.1118 -0.121685 36.797 0.0296526C39.4763 0.17517 42.1318 0.891113 44.52 2.10181C49.5756 4.66873 53.4252 9.46497 53.7044 15.8503C53.7341 16.5778 53.1341 17.189 52.3618 17.2181C51.5895 17.2472 50.942 16.6826 50.9123 15.955C50.6806 10.6058 47.4429 6.58373 43.1952 4.42426C43.0111 4.33113 42.8328 4.24382 42.6427 4.15651C42.4883 4.2089 42.3219 4.238 42.1437 4.23218C40.8724 4.20308 40.5397 6.42076 40.4625 9.41258C40.4268 10.7513 40.4565 12.2298 40.4863 13.7373C40.51 14.9364 40.5338 16.1587 40.5338 16.9736C40.5338 17.7129 39.91 18.3124 39.1436 18.3124C38.3773 18.3124 37.7535 17.7129 37.7535 16.9736C37.7535 15.6465 37.7357 14.7036 37.7179 13.7781C37.6882 12.2356 37.6585 10.7339 37.6941 9.34855C37.7654 6.64776 38.0921 4.36606 39.1021 2.98656C38.2882 2.81776 37.4624 2.70716 36.6366 2.6606C35.597 2.60239 34.5574 2.64896 33.5356 2.79447C34.4623 4.20308 34.7772 6.45568 34.8485 9.10409C34.8841 10.536 34.8544 12.0959 34.8247 13.6966C34.8069 14.6512 34.7891 15.6232 34.7891 16.9736C34.7891 17.707 34.1831 18.3008 33.4346 18.3008C32.686 18.3008 32.0801 17.707 32.0801 16.9736C32.0801 16.1296 32.1038 14.884 32.1276 13.6559C32.1573 12.0843 32.187 10.5534 32.1514 9.16811C32.0801 6.10062 31.7415 3.83055 30.4464 3.86548ZM29.5077 43.4985V47.0025L36.5 54.4646L42.8626 47.6719V43.3995C41.0625 44.4123 38.9951 45.0991 36.6604 45.4426C36.5119 45.4659 36.3574 45.4717 36.197 45.4484C33.7732 45.105 31.5098 44.5171 29.5077 43.4985ZM19.0579 17.4742C19.4203 18.2251 20.1273 18.9003 21.0897 19.4882C24.1967 21.3915 29.6622 22.3054 35.3059 22.3228C40.9972 22.3403 46.7953 21.4323 50.5142 19.7035C51.9816 19.0225 53.0807 18.2309 53.645 17.3462L56.0451 18.6966C55.1896 20.0411 53.6866 21.1645 51.7499 22.0609C47.6508 23.9701 41.3892 24.9654 35.3 24.948C29.1632 24.9305 23.1333 23.877 19.5629 21.6884C18.1668 20.8328 17.1094 19.7908 16.5153 18.5627L19.0579 17.4742ZM34.5336 60.0059H37.9258V63.2073H34.5336V60.0059ZM34.5336 66.5774H37.9258V69.7788H34.5336V66.5774Z" fill="white"/>
</svg>
