<svg width="66" height="69" viewBox="0 0 66 69" fill="none" xmlns="http://www.w3.org/2000/svg">
<path fill-rule="evenodd" clip-rule="evenodd" d="M4.06266 13.0554H0L0.386653 10.3096H11.5436L11.1569 13.0554H7.09424L5.16658 26.8352H2.1406L4.06266 13.0554ZM40.2007 4.33496H16.7494C15.2196 4.33496 13.8074 4.59888 12.541 5.13232C12.0479 5.34009 11.566 5.58716 11.1009 5.87354H4.71829C5.10494 5.38501 5.52522 4.90771 5.98472 4.45288C7.45848 2.97607 9.10596 1.85864 10.8991 1.12305C12.6923 0.387451 14.6312 0 16.7213 0H27.3403L27.3683 0.0280762H50.8141C52.8762 0.0280762 54.8151 0.415527 56.6419 1.15112C58.435 1.88672 60.0825 3.00977 61.5563 4.48096C63.0301 5.95776 64.1452 7.60303 64.8793 9.40552C65.6133 11.2024 65.9944 13.1509 65.9944 15.2397V38.178C65.9944 40.2725 65.6133 42.2153 64.8793 44.0122C64.1452 45.8091 63.0244 47.46 61.5563 48.9368C60.0881 50.408 58.435 51.5029 56.6419 52.2666C54.8487 53.0022 52.9042 53.384 50.8141 53.384H43.2267C41.9042 55.063 40.4585 56.6577 38.9343 58.1008C37.1075 59.8135 35.1686 61.3464 33.0784 62.6997C30.9883 64.0811 28.7524 65.2939 26.3709 66.3271C24.0173 67.3604 21.4901 68.2139 18.8395 68.9214C18.0774 69.1292 17.2481 68.8933 16.6933 68.27C15.8976 67.3884 15.9873 66.0295 16.867 65.2322C18.1054 64.1428 19.1589 63.0198 20.0163 61.9023C20.84 60.813 21.5181 59.6899 22.0168 58.5388V58.5107C22.5772 57.2698 23.0759 56.0063 23.5186 54.7373C23.6643 54.2937 23.81 53.822 23.9557 53.3503H16.7213C14.6592 53.3503 12.7203 52.9685 10.8991 52.2329C9.10596 51.4973 7.45848 50.3743 5.98472 48.9031C4.51095 47.4263 3.39582 45.7754 2.66174 43.9785C1.92766 42.1479 1.54661 40.2051 1.54661 38.1443V31.6587H5.87264V38.178C5.87264 39.7109 6.13602 41.126 6.66836 42.395C7.19511 43.6641 7.99083 44.8433 9.04992 45.9045C10.137 46.9658 11.3138 47.7913 12.5802 48.291C13.8467 48.8245 15.2308 49.0884 16.7606 49.0884H26.8192C27.9959 49.0884 28.9654 50.0598 28.9654 51.239C28.9654 51.5029 28.9093 51.7388 28.8477 51.9746C28.4666 53.3896 28.052 54.8047 27.5813 56.1636C27.0825 57.6067 26.5502 58.9656 25.9618 60.2908C25.6648 60.9702 25.3118 61.616 24.9307 62.2954C26.9929 61.3801 28.9317 60.3188 30.7249 59.1396C32.6077 57.9043 34.3729 56.5173 35.9924 55.0125C37.6398 53.4795 39.108 51.8005 40.4641 49.998C40.8788 49.4365 41.5232 49.1445 42.1732 49.1445H50.8197C52.3495 49.1445 53.7336 48.8806 55 48.3472C56.2664 47.8193 57.4432 47.022 58.5303 45.9607C59.5894 44.8994 60.3851 43.7202 60.9119 42.4512C61.4386 41.1821 61.7076 39.7671 61.7076 38.2341V15.3015C61.7076 13.7686 61.4442 12.3535 60.9119 11.0845C60.3851 9.81543 59.5894 8.63623 58.5303 7.57495C57.4712 6.51367 56.2944 5.71631 55.028 5.18286C53.7616 4.65503 52.3495 4.3855 50.8197 4.3855H40.2007V4.33496ZM46.813 41.7717C45.9221 41.7717 45.2384 41.5134 44.7733 41.0024C44.3082 40.4915 44.0728 39.7727 44.0728 38.8518C44.0728 38.6777 44.0953 38.4194 44.1401 38.0825C44.1849 37.7456 44.2578 37.2065 44.3586 36.4709L45.2216 30.1313H47.7713L46.9531 36.1677C46.7962 37.3357 46.7178 37.9421 46.7178 37.9871C46.7178 38.4924 46.8186 38.8574 47.0092 39.082C47.1997 39.3066 47.5247 39.4189 47.9674 39.4189C48.4829 39.4189 48.9424 39.2 49.3403 38.7676C49.7382 38.3352 49.9791 37.7344 50.0856 36.9707L51.0158 30.1313H53.5879L52.0132 41.5134H49.8951V40.0422C49.0601 41.199 48.0346 41.7717 46.813 41.7717ZM37.7183 41.7717C35.0397 41.7717 33.7005 40.3848 33.7005 37.6165C33.7005 35.522 34.0927 33.7083 34.8772 32.1753C35.6617 30.6423 37.0178 29.873 38.9455 29.873C41.624 29.873 42.9633 31.2769 42.9633 34.0901C42.9633 36.179 42.5711 37.9871 41.7865 39.4976C41.002 41.0137 39.6459 41.7717 37.7183 41.7717ZM37.8023 39.5874C38.811 39.5874 39.4778 38.9473 39.8085 37.6726C40.1391 36.3979 40.3072 35.2019 40.3072 34.0901C40.3072 32.7312 39.8253 32.0574 38.8614 32.0574C37.8528 32.0574 37.1859 32.6975 36.8553 33.9722C36.5247 35.2468 36.3566 36.4429 36.3566 37.5547C36.3566 38.2341 36.4743 38.7395 36.704 39.082C36.9282 39.4189 37.298 39.5874 37.8023 39.5874ZM25.0372 45.4497C24.5889 45.4497 24.2078 45.4216 23.894 45.3767C23.5746 45.3262 23.4177 45.2869 23.4177 45.2588L23.6531 43.2654H24.8186C25.2053 43.2654 25.5751 43.1194 25.9226 42.833C26.27 42.5466 26.5558 42.103 26.7855 41.5134L24.6281 30.1313H27.217L28.1696 35.4771C28.2313 35.8364 28.2873 36.3643 28.3546 37.0549C28.4162 37.7456 28.461 38.2117 28.4722 38.4419H28.5563C28.6123 38.2229 28.7468 37.7793 28.9541 37.1111C29.1615 36.4429 29.3464 35.9038 29.5033 35.4995L31.6439 30.1313H34.1936L29.6378 40.9294C29.0438 42.3333 28.3658 43.4338 27.6317 44.2424C26.892 45.051 26.029 45.4497 25.0372 45.4497ZM46.3255 9.41675H49.189L47.8665 18.9065L51.8563 14.1616H55.1009L50.6796 19.3669L53.515 26.8352H50.4834L48.6566 21.658L47.3118 22.9832L46.785 26.8352H43.9215L46.3255 9.41675ZM34.1768 14.1672H36.5079V15.8518C37.3877 14.5322 38.5364 13.8752 39.9485 13.8752C40.9404 13.8752 41.7025 14.1616 42.218 14.7288C42.7392 15.2959 42.9969 16.0989 42.9969 17.1265C42.9969 17.3174 42.9745 17.6038 42.9241 17.98C42.8793 18.3562 42.7952 18.957 42.6831 19.7769L41.7193 26.8352H38.8895L39.8028 20.1138C39.9822 18.811 40.0662 18.1372 40.0662 18.0923C40.0662 17.5308 39.9598 17.1208 39.7412 16.8738C39.5283 16.6267 39.1696 16.4976 38.6709 16.4976C38.0937 16.4976 37.5838 16.739 37.1467 17.2219C36.704 17.7048 36.4294 18.373 36.3174 19.2209L35.2863 26.8352H32.4228L34.1768 14.1672ZM25.3958 27.1272C24.3087 27.1272 23.4626 26.751 22.8742 25.9929C22.2802 25.2405 21.9832 24.123 21.9832 22.6462C21.9832 20.7034 22.2073 19.0693 22.6556 17.7554C23.1039 16.4414 23.6923 15.4644 24.4208 14.8298C25.1493 14.1953 25.9338 13.8809 26.7631 13.8809C28.0464 13.8809 28.9261 14.4817 29.408 15.689L29.89 14.1729H32.1258C31.9633 15.1667 31.6775 17.031 31.2629 19.76C30.8482 22.489 30.6353 23.9097 30.6353 24.022C30.6353 24.4712 30.8258 24.6958 31.2124 24.6958H31.6439L31.3525 26.7454C30.921 27.0037 30.4447 27.1328 29.9348 27.1328C29.408 27.1328 28.971 26.9812 28.6347 26.6892C28.2985 26.3916 28.0632 25.9761 27.9399 25.4482C27.6541 26.0098 27.2674 26.4309 26.7967 26.7117C26.3316 26.9868 25.8609 27.1272 25.3958 27.1272ZM26.1411 24.6453C26.7519 24.6453 27.2394 24.3027 27.6093 23.6233C27.9791 22.9438 28.2369 22.1409 28.377 21.2256C28.5227 20.3103 28.5955 19.468 28.5955 18.6987C28.5955 17.9126 28.5003 17.323 28.3097 16.9412C28.1192 16.5593 27.7886 16.3628 27.3235 16.3628C26.7127 16.3628 26.2252 16.7222 25.8553 17.4465C25.4855 18.1709 25.2277 18.9907 25.0764 19.9172C24.9251 20.8381 24.8467 21.6243 24.8467 22.2644C24.8467 23.8479 25.2781 24.6453 26.1411 24.6453ZM12.9165 9.41675H15.7799L14.917 15.4868C15.7967 14.4087 16.839 13.8752 18.0438 13.8752C19.0357 13.8752 19.7978 14.1616 20.3133 14.7288C20.8344 15.2959 21.0922 16.0989 21.0922 17.1265C21.0922 17.3174 21.0698 17.6038 21.0194 17.98C20.9745 18.3562 20.8905 18.957 20.7784 19.7769L19.8146 26.8352H16.9791C17.7636 21.1638 18.1559 18.2495 18.1559 18.0923C18.1559 17.5308 18.0494 17.1208 17.8309 16.8738C17.6179 16.6267 17.2593 16.4976 16.7606 16.4976C16.1834 16.4976 15.6791 16.739 15.2476 17.2219C14.8161 17.7048 14.5471 18.373 14.4294 19.2209L13.3704 26.8352H10.5069L12.9165 9.41675Z" fill="white"/>
</svg>
