<svg width="15" height="27" viewBox="0 0 15 27" fill="none" xmlns="http://www.w3.org/2000/svg">
<path d="M13.168 14.875H9.35938V26.25H4.28125V14.875H0.167969V10.1523H4.28125V6.59766C4.28125 5.24349 4.53516 4.09245 5.04297 3.14453C5.55078 2.19661 6.26172 1.48568 7.17578 1.01172C8.1237 0.503906 9.20703 0.25 10.4258 0.25C10.9674 0.25 11.543 0.283854 12.1523 0.351562C12.7617 0.385417 13.2357 0.436198 13.5742 0.503906L14.082 0.554688V4.56641H12.0508C11.1029 4.56641 10.4089 4.82031 9.96875 5.32812C9.5625 5.80208 9.35938 6.39453 9.35938 7.10547V10.1523H13.8789L13.168 14.875Z" fill="white"/>
</svg>
