<svg width="19" height="26" viewBox="0 0 19 26" fill="none" xmlns="http://www.w3.org/2000/svg">
<path d="M8.39844 24.6367C7.61719 23.4974 6.72201 22.2116 5.71289 20.7793C4.73633 19.347 4.03646 18.3379 3.61328 17.752C3.1901 17.166 2.70182 16.4499 2.14844 15.6035C1.59505 14.7246 1.2207 14.1061 1.02539 13.748C0.86263 13.39 0.667318 12.9342 0.439453 12.3809C0.244141 11.8275 0.113932 11.3555 0.0488281 10.9648C0.016276 10.5417 0 10.0534 0 9.5C0 6.89583 0.911458 4.68229 2.73438 2.85938C4.55729 1.03646 6.77083 0.125 9.375 0.125C11.9792 0.125 14.1927 1.03646 16.0156 2.85938C17.8385 4.68229 18.75 6.89583 18.75 9.5C18.75 10.0534 18.7174 10.5417 18.6523 10.9648C18.6198 11.3555 18.4896 11.8275 18.2617 12.3809C18.0664 12.9342 17.8711 13.39 17.6758 13.748C17.513 14.1061 17.1549 14.7246 16.6016 15.6035C16.0482 16.4499 15.5599 17.166 15.1367 17.752C14.7135 18.3379 13.9974 19.347 12.9883 20.7793C12.0117 22.2116 11.1328 23.4974 10.3516 24.6367C10.1237 24.9622 9.79818 25.125 9.375 25.125C8.95182 25.125 8.6263 24.9622 8.39844 24.6367ZM6.5918 12.2832C7.37305 13.0319 8.30078 13.4062 9.375 13.4062C10.4492 13.4062 11.3607 13.0319 12.1094 12.2832C12.8906 11.502 13.2812 10.5742 13.2812 9.5C13.2812 8.42578 12.8906 7.51432 12.1094 6.76562C11.3607 5.98438 10.4492 5.59375 9.375 5.59375C8.30078 5.59375 7.37305 5.98438 6.5918 6.76562C5.8431 7.51432 5.46875 8.42578 5.46875 9.5C5.46875 10.5742 5.8431 11.502 6.5918 12.2832Z" fill="white"/>
</svg>
